<?xml version="1.0" standalone="no"?>
<!DOCTYPE svg PUBLIC "-//W3C//DTD SVG 20010904//EN"
 "http://www.w3.org/TR/2001/REC-SVG-20010904/DTD/svg10.dtd">
<svg version="1.0" xmlns="http://www.w3.org/2000/svg"
 width="1024.000000pt" height="1024.000000pt" viewBox="0 0 1024.000000 1024.000000"
 preserveAspectRatio="xMidYMid meet">

<g transform="translate(0.000000,1024.000000) scale(0.100000,-0.100000)"
fill="#000000" stroke="none">
<path d="M6114 8301 c-23 -10 -50 -32 -61 -47 -25 -37 -2525 -5950 -2531
-5986 -2 -16 -1 -44 2 -63 13 -68 40 -86 296 -195 219 -94 244 -102 289 -98
61 6 103 35 129 90 11 24 580 1369 1266 2991 1329 3144 1269 2994 1231 3067
-8 16 -27 37 -42 48 -43 30 -462 204 -502 209 -22 2 -52 -4 -77 -16z"/>
<path d="M3108 7187 c-18 -13 -569 -423 -1222 -912 -1055 -788 -1191 -893
-1207 -929 -23 -51 -23 -80 0 -131 16 -35 161 -147 1201 -925 651 -487 1200
-896 1219 -909 52 -36 125 -40 171 -9 33 22 220 258 310 392 47 69 54 129 20
184 -13 22 -313 252 -883 678 -474 355 -862 649 -862 655 0 5 387 298 860 652
522 391 869 656 882 676 27 40 31 107 9 149 -35 67 -309 418 -339 435 -46 25
-116 22 -159 -6z"/>
<path d="M7003 7190 c-19 -11 -98 -107 -188 -227 -172 -230 -181 -251 -149
-332 16 -40 42 -62 268 -231 138 -103 532 -396 874 -653 l624 -466 -874 -654
c-804 -601 -876 -657 -891 -696 -21 -50 -21 -72 -3 -115 20 -47 300 -422 331
-442 37 -24 115 -30 151 -11 69 37 2420 1804 2441 1836 40 60 28 146 -29 197
-34 32 -2335 1752 -2387 1786 -55 34 -120 38 -168 8z"/>
</g>
</svg>
